<svg width="16" height="16" viewBox="0 0 16 16" fill="none" xmlns="http://www.w3.org/2000/svg">
  <path d="M8 0C3.58 0 0 3.58 0 8c0 3.54 2.29 6.53 5.43 7.59.4.07.55-.17.55-.39v-1.49c-2.21.48-2.67-1.07-2.67-1.07-.36-.9-.88-1.14-.88-1.14-.72-.49.05-.48.05-.48.8.06 1.22.82 1.22.82.71 1.22 1.87.87 2.33.67.07-.52.28-.87.51-1.07-1.8-.2-3.7-.9-3.7-4.02 0-.89.32-1.62.84-2.2-.08-.2-.37-1.02.08-2.12 0 0 .68-.22 2.2.84.64-.18 1.33-.27 2.01-.27.68 0 1.37.09 2.01.27 1.51-1.05 2.2-.84 2.2-.84.45 1.1.16 1.92.08 2.12.52.58.84 1.31.84 2.2 0 3.12-1.9 3.82-3.7 4.02.28.24.52.72.52 1.44v2.12c0 .22.15.46.55.39C13.71 14.53 16 11.54 16 8c0-4.42-3.58-8-8-8z" fill="white"/>
</svg>
